<mxfile host="Electron" modified="2023-12-22T20:24:36.410Z" agent="Mozilla/5.0 (Windows NT 10.0; Win64; x64) AppleWebKit/537.36 (KHTML, like Gecko) draw.io/22.1.2 Chrome/114.0.5735.289 Electron/25.9.4 Safari/537.36" etag="M_-m8POCLedXiiuqpixl" version="22.1.2" type="device">
  <diagram id="R2lEEEUBdFMjLlhIrx00" name="Page-1">
    <mxGraphModel dx="3582" dy="2484" grid="1" gridSize="10" guides="1" tooltips="1" connect="1" arrows="1" fold="1" page="1" pageScale="1" pageWidth="850" pageHeight="1100" math="0" shadow="0" extFonts="Permanent Marker^https://fonts.googleapis.com/css?family=Permanent+Marker">
      <root>
        <mxCell id="0" />
        <mxCell id="1" parent="0" />
        <mxCell id="C-vyLk0tnHw3VtMMgP7b-1" value="" style="edgeStyle=entityRelationEdgeStyle;endArrow=ERzeroToMany;startArrow=ERone;endFill=1;startFill=0;entryX=0;entryY=0.5;entryDx=0;entryDy=0;" parent="1" edge="1">
          <mxGeometry width="100" height="100" relative="1" as="geometry">
            <mxPoint x="-210" y="570" as="sourcePoint" />
            <mxPoint x="-130" y="475" as="targetPoint" />
          </mxGeometry>
        </mxCell>
        <mxCell id="C-vyLk0tnHw3VtMMgP7b-12" value="" style="edgeStyle=entityRelationEdgeStyle;endArrow=ERzeroToMany;startArrow=ERone;endFill=1;startFill=0;exitX=1;exitY=0.5;exitDx=0;exitDy=0;" parent="1" source="Yoxj_JTkUOnSCHoUk-nb-22" edge="1">
          <mxGeometry width="100" height="100" relative="1" as="geometry">
            <mxPoint x="610" y="610" as="sourcePoint" />
            <mxPoint x="820" y="525" as="targetPoint" />
          </mxGeometry>
        </mxCell>
        <mxCell id="C-vyLk0tnHw3VtMMgP7b-23" value="Branch" style="shape=table;startSize=30;container=1;collapsible=1;childLayout=tableLayout;fixedRows=1;rowLines=0;fontStyle=1;align=center;resizeLast=1;" parent="1" vertex="1">
          <mxGeometry x="-460" y="430" width="250" height="210" as="geometry" />
        </mxCell>
        <mxCell id="C-vyLk0tnHw3VtMMgP7b-24" value="" style="shape=partialRectangle;collapsible=0;dropTarget=0;pointerEvents=0;fillColor=none;points=[[0,0.5],[1,0.5]];portConstraint=eastwest;top=0;left=0;right=0;bottom=1;" parent="C-vyLk0tnHw3VtMMgP7b-23" vertex="1">
          <mxGeometry y="30" width="250" height="30" as="geometry" />
        </mxCell>
        <mxCell id="C-vyLk0tnHw3VtMMgP7b-25" value="PK" style="shape=partialRectangle;overflow=hidden;connectable=0;fillColor=none;top=0;left=0;bottom=0;right=0;fontStyle=1;" parent="C-vyLk0tnHw3VtMMgP7b-24" vertex="1">
          <mxGeometry width="30" height="30" as="geometry">
            <mxRectangle width="30" height="30" as="alternateBounds" />
          </mxGeometry>
        </mxCell>
        <mxCell id="C-vyLk0tnHw3VtMMgP7b-26" value="Branch_id" style="shape=partialRectangle;overflow=hidden;connectable=0;fillColor=none;top=0;left=0;bottom=0;right=0;align=center;spacingLeft=6;fontStyle=0;" parent="C-vyLk0tnHw3VtMMgP7b-24" vertex="1">
          <mxGeometry x="30" width="220" height="30" as="geometry">
            <mxRectangle width="220" height="30" as="alternateBounds" />
          </mxGeometry>
        </mxCell>
        <mxCell id="tp9Cc-kv2uPg05OPm2h--9" value="Address" style="shape=partialRectangle;overflow=hidden;connectable=0;fillColor=none;top=1;left=0;bottom=1;right=0;align=center;spacingLeft=6;" parent="1" vertex="1">
          <mxGeometry x="-460" y="520" width="250" height="30" as="geometry">
            <mxRectangle width="220" height="30" as="alternateBounds" />
          </mxGeometry>
        </mxCell>
        <mxCell id="tp9Cc-kv2uPg05OPm2h--10" value="Name" style="shape=partialRectangle;overflow=hidden;connectable=0;fillColor=none;top=1;left=0;bottom=1;right=0;align=center;spacingLeft=6;" parent="1" vertex="1">
          <mxGeometry x="-460" y="490" width="250" height="30" as="geometry">
            <mxRectangle width="220" height="30" as="alternateBounds" />
          </mxGeometry>
        </mxCell>
        <mxCell id="tp9Cc-kv2uPg05OPm2h--12" value="FK" style="shape=partialRectangle;overflow=hidden;connectable=0;fillColor=none;top=1;left=1;bottom=1;right=0;fontStyle=1;" parent="1" vertex="1">
          <mxGeometry x="-460" y="610" width="30" height="30" as="geometry">
            <mxRectangle width="30" height="30" as="alternateBounds" />
          </mxGeometry>
        </mxCell>
        <mxCell id="tp9Cc-kv2uPg05OPm2h--13" value="Employee_id" style="shape=partialRectangle;overflow=hidden;connectable=0;fillColor=none;top=1;left=1;bottom=1;right=0;align=center;spacingLeft=6;fontStyle=0;" parent="1" vertex="1">
          <mxGeometry x="-430" y="610" width="220" height="30" as="geometry">
            <mxRectangle width="220" height="30" as="alternateBounds" />
          </mxGeometry>
        </mxCell>
        <mxCell id="Yoxj_JTkUOnSCHoUk-nb-34" style="edgeStyle=entityRelationEdgeStyle;rounded=0;orthogonalLoop=1;jettySize=auto;html=1;exitX=1;exitY=0.25;exitDx=0;exitDy=0;entryX=0;entryY=0.5;entryDx=0;entryDy=0;endArrow=ERzeroToMany;endFill=0;" parent="1" target="Yoxj_JTkUOnSCHoUk-nb-28" edge="1">
          <mxGeometry relative="1" as="geometry">
            <mxPoint x="120" y="473.75" as="sourcePoint" />
            <mxPoint x="270" y="536.25" as="targetPoint" />
          </mxGeometry>
        </mxCell>
        <mxCell id="tp9Cc-kv2uPg05OPm2h--18" value="Employee" style="shape=table;startSize=30;container=1;collapsible=1;childLayout=tableLayout;fixedRows=1;rowLines=0;fontStyle=1;align=center;resizeLast=1;" parent="1" vertex="1">
          <mxGeometry x="-130" y="430" width="250" height="210" as="geometry" />
        </mxCell>
        <mxCell id="tp9Cc-kv2uPg05OPm2h--19" value="" style="shape=partialRectangle;collapsible=0;dropTarget=0;pointerEvents=0;fillColor=none;points=[[0,0.5],[1,0.5]];portConstraint=eastwest;top=0;left=0;right=0;bottom=1;" parent="tp9Cc-kv2uPg05OPm2h--18" vertex="1">
          <mxGeometry y="30" width="250" height="30" as="geometry" />
        </mxCell>
        <mxCell id="tp9Cc-kv2uPg05OPm2h--20" value="PK" style="shape=partialRectangle;overflow=hidden;connectable=0;fillColor=none;top=0;left=0;bottom=0;right=0;fontStyle=1;" parent="tp9Cc-kv2uPg05OPm2h--19" vertex="1">
          <mxGeometry width="30" height="30" as="geometry">
            <mxRectangle width="30" height="30" as="alternateBounds" />
          </mxGeometry>
        </mxCell>
        <mxCell id="tp9Cc-kv2uPg05OPm2h--21" value="Employee_id" style="shape=partialRectangle;overflow=hidden;connectable=0;fillColor=none;top=0;left=0;bottom=0;right=0;align=center;spacingLeft=6;fontStyle=0;" parent="tp9Cc-kv2uPg05OPm2h--19" vertex="1">
          <mxGeometry x="30" width="220" height="30" as="geometry">
            <mxRectangle width="220" height="30" as="alternateBounds" />
          </mxGeometry>
        </mxCell>
        <mxCell id="tp9Cc-kv2uPg05OPm2h--22" value="Gender" style="shape=partialRectangle;overflow=hidden;connectable=0;fillColor=none;top=1;left=0;bottom=1;right=0;align=center;spacingLeft=6;" parent="1" vertex="1">
          <mxGeometry x="-130" y="520" width="250" height="30" as="geometry">
            <mxRectangle width="220" height="30" as="alternateBounds" />
          </mxGeometry>
        </mxCell>
        <mxCell id="tp9Cc-kv2uPg05OPm2h--23" value="Name" style="shape=partialRectangle;overflow=hidden;connectable=0;fillColor=none;top=1;left=0;bottom=1;right=0;align=center;spacingLeft=6;" parent="1" vertex="1">
          <mxGeometry x="-130" y="490" width="250" height="30" as="geometry">
            <mxRectangle width="220" height="30" as="alternateBounds" />
          </mxGeometry>
        </mxCell>
        <mxCell id="tp9Cc-kv2uPg05OPm2h--26" value="Date of Birth" style="shape=partialRectangle;overflow=hidden;connectable=0;fillColor=none;top=1;left=0;bottom=1;right=0;align=center;spacingLeft=6;" parent="1" vertex="1">
          <mxGeometry x="-130" y="550" width="250" height="30" as="geometry">
            <mxRectangle width="220" height="30" as="alternateBounds" />
          </mxGeometry>
        </mxCell>
        <mxCell id="tp9Cc-kv2uPg05OPm2h--28" value="Phone Number" style="shape=partialRectangle;overflow=hidden;connectable=0;fillColor=none;top=1;left=0;bottom=1;right=0;align=center;spacingLeft=6;" parent="1" vertex="1">
          <mxGeometry x="-130" y="580" width="250" height="30" as="geometry">
            <mxRectangle width="220" height="30" as="alternateBounds" />
          </mxGeometry>
        </mxCell>
        <mxCell id="tp9Cc-kv2uPg05OPm2h--29" value="Job Title" style="shape=partialRectangle;overflow=hidden;connectable=0;fillColor=none;top=1;left=0;bottom=1;right=0;align=center;spacingLeft=6;" parent="1" vertex="1">
          <mxGeometry x="-130" y="610" width="250" height="30" as="geometry">
            <mxRectangle width="220" height="30" as="alternateBounds" />
          </mxGeometry>
        </mxCell>
        <mxCell id="tp9Cc-kv2uPg05OPm2h--31" value="License" style="shape=table;startSize=30;container=1;collapsible=1;childLayout=tableLayout;fixedRows=1;rowLines=0;fontStyle=1;align=center;resizeLast=1;" parent="1" vertex="1">
          <mxGeometry x="820" y="480" width="250" height="90" as="geometry" />
        </mxCell>
        <mxCell id="tp9Cc-kv2uPg05OPm2h--32" value="" style="shape=partialRectangle;collapsible=0;dropTarget=0;pointerEvents=0;fillColor=none;points=[[0,0.5],[1,0.5]];portConstraint=eastwest;top=0;left=0;right=0;bottom=1;" parent="tp9Cc-kv2uPg05OPm2h--31" vertex="1">
          <mxGeometry y="30" width="250" height="30" as="geometry" />
        </mxCell>
        <mxCell id="tp9Cc-kv2uPg05OPm2h--33" value="PK" style="shape=partialRectangle;overflow=hidden;connectable=0;fillColor=none;top=0;left=0;bottom=0;right=0;fontStyle=1;" parent="tp9Cc-kv2uPg05OPm2h--32" vertex="1">
          <mxGeometry width="30" height="30" as="geometry">
            <mxRectangle width="30" height="30" as="alternateBounds" />
          </mxGeometry>
        </mxCell>
        <mxCell id="tp9Cc-kv2uPg05OPm2h--34" value="License_id" style="shape=partialRectangle;overflow=hidden;connectable=0;fillColor=none;top=0;left=0;bottom=0;right=0;align=center;spacingLeft=6;fontStyle=0;" parent="tp9Cc-kv2uPg05OPm2h--32" vertex="1">
          <mxGeometry x="30" width="220" height="30" as="geometry">
            <mxRectangle width="220" height="30" as="alternateBounds" />
          </mxGeometry>
        </mxCell>
        <mxCell id="tp9Cc-kv2uPg05OPm2h--36" value="Catagory" style="shape=partialRectangle;overflow=hidden;connectable=0;fillColor=none;top=1;left=0;bottom=1;right=0;align=center;spacingLeft=6;" parent="1" vertex="1">
          <mxGeometry x="820" y="540" width="250" height="30" as="geometry">
            <mxRectangle width="220" height="30" as="alternateBounds" />
          </mxGeometry>
        </mxCell>
        <mxCell id="tp9Cc-kv2uPg05OPm2h--48" value="" style="endArrow=ERzeroToMany;startArrow=ERone;endFill=1;startFill=0;entryX=0;entryY=0.5;entryDx=0;entryDy=0;exitX=1;exitY=0.5;exitDx=0;exitDy=0;edgeStyle=orthogonalEdgeStyle;rounded=0;" parent="1" source="tp9Cc-kv2uPg05OPm2h--50" target="Yoxj_JTkUOnSCHoUk-nb-65" edge="1">
          <mxGeometry width="100" height="100" relative="1" as="geometry">
            <mxPoint x="1340" y="550" as="sourcePoint" />
            <mxPoint x="1480" y="490" as="targetPoint" />
          </mxGeometry>
        </mxCell>
        <mxCell id="tp9Cc-kv2uPg05OPm2h--49" value="Lesson" style="shape=table;startSize=30;container=1;collapsible=1;childLayout=tableLayout;fixedRows=1;rowLines=0;fontStyle=1;align=center;resizeLast=1;" parent="1" vertex="1">
          <mxGeometry x="1180" y="120" width="250" height="240" as="geometry" />
        </mxCell>
        <mxCell id="tp9Cc-kv2uPg05OPm2h--50" value="" style="shape=partialRectangle;collapsible=0;dropTarget=0;pointerEvents=0;fillColor=none;points=[[0,0.5],[1,0.5]];portConstraint=eastwest;top=0;left=0;right=0;bottom=1;" parent="tp9Cc-kv2uPg05OPm2h--49" vertex="1">
          <mxGeometry y="30" width="250" height="30" as="geometry" />
        </mxCell>
        <mxCell id="tp9Cc-kv2uPg05OPm2h--51" value="PK" style="shape=partialRectangle;overflow=hidden;connectable=0;fillColor=none;top=0;left=0;bottom=0;right=0;fontStyle=1;" parent="tp9Cc-kv2uPg05OPm2h--50" vertex="1">
          <mxGeometry width="30" height="30" as="geometry">
            <mxRectangle width="30" height="30" as="alternateBounds" />
          </mxGeometry>
        </mxCell>
        <mxCell id="tp9Cc-kv2uPg05OPm2h--52" value="Lesson_id" style="shape=partialRectangle;overflow=hidden;connectable=0;fillColor=none;top=0;left=0;bottom=0;right=0;align=center;spacingLeft=6;fontStyle=0;" parent="tp9Cc-kv2uPg05OPm2h--50" vertex="1">
          <mxGeometry x="30" width="220" height="30" as="geometry">
            <mxRectangle width="220" height="30" as="alternateBounds" />
          </mxGeometry>
        </mxCell>
        <mxCell id="tp9Cc-kv2uPg05OPm2h--53" value="Time" style="shape=partialRectangle;overflow=hidden;connectable=0;fillColor=none;top=1;left=0;bottom=1;right=0;align=center;spacingLeft=6;" parent="1" vertex="1">
          <mxGeometry x="1180" y="210" width="250" height="30" as="geometry">
            <mxRectangle width="220" height="30" as="alternateBounds" />
          </mxGeometry>
        </mxCell>
        <mxCell id="tp9Cc-kv2uPg05OPm2h--54" value="Date" style="shape=partialRectangle;overflow=hidden;connectable=0;fillColor=none;top=1;left=0;bottom=1;right=0;align=center;spacingLeft=6;" parent="1" vertex="1">
          <mxGeometry x="1180" y="180" width="250" height="30" as="geometry">
            <mxRectangle width="220" height="30" as="alternateBounds" />
          </mxGeometry>
        </mxCell>
        <mxCell id="tp9Cc-kv2uPg05OPm2h--57" value="Duration" style="shape=partialRectangle;overflow=hidden;connectable=0;fillColor=none;top=1;left=0;bottom=1;right=0;align=center;spacingLeft=6;" parent="1" vertex="1">
          <mxGeometry x="1180" y="240" width="250" height="30" as="geometry">
            <mxRectangle width="220" height="30" as="alternateBounds" />
          </mxGeometry>
        </mxCell>
        <mxCell id="tp9Cc-kv2uPg05OPm2h--58" value="Topic" style="shape=partialRectangle;overflow=hidden;connectable=0;fillColor=none;top=1;left=0;bottom=1;right=0;align=center;spacingLeft=6;" parent="1" vertex="1">
          <mxGeometry x="1180" y="300" width="250" height="30" as="geometry">
            <mxRectangle width="220" height="30" as="alternateBounds" />
          </mxGeometry>
        </mxCell>
        <mxCell id="tp9Cc-kv2uPg05OPm2h--59" value=" Max Participants" style="shape=partialRectangle;overflow=hidden;connectable=0;fillColor=none;top=1;left=0;bottom=1;right=0;align=center;spacingLeft=6;" parent="1" vertex="1">
          <mxGeometry x="1180" y="330" width="250" height="30" as="geometry">
            <mxRectangle width="220" height="30" as="alternateBounds" />
          </mxGeometry>
        </mxCell>
        <mxCell id="tp9Cc-kv2uPg05OPm2h--61" value="Type" style="shape=partialRectangle;overflow=hidden;connectable=0;fillColor=none;top=1;left=0;bottom=1;right=0;align=center;spacingLeft=6;" parent="1" vertex="1">
          <mxGeometry x="1180" y="270" width="250" height="30" as="geometry">
            <mxRectangle width="220" height="30" as="alternateBounds" />
          </mxGeometry>
        </mxCell>
        <mxCell id="tp9Cc-kv2uPg05OPm2h--62" value="Student" style="shape=table;startSize=30;container=1;collapsible=1;childLayout=tableLayout;fixedRows=1;rowLines=0;fontStyle=1;align=center;resizeLast=1;" parent="1" vertex="1">
          <mxGeometry x="1930" y="200" width="250" height="180" as="geometry" />
        </mxCell>
        <mxCell id="tp9Cc-kv2uPg05OPm2h--63" value="" style="shape=partialRectangle;collapsible=0;dropTarget=0;pointerEvents=0;fillColor=none;points=[[0,0.5],[1,0.5]];portConstraint=eastwest;top=0;left=0;right=0;bottom=1;" parent="tp9Cc-kv2uPg05OPm2h--62" vertex="1">
          <mxGeometry y="30" width="250" height="30" as="geometry" />
        </mxCell>
        <mxCell id="tp9Cc-kv2uPg05OPm2h--64" value="PK" style="shape=partialRectangle;overflow=hidden;connectable=0;fillColor=none;top=0;left=0;bottom=0;right=0;fontStyle=1;" parent="tp9Cc-kv2uPg05OPm2h--63" vertex="1">
          <mxGeometry width="30" height="30" as="geometry">
            <mxRectangle width="30" height="30" as="alternateBounds" />
          </mxGeometry>
        </mxCell>
        <mxCell id="tp9Cc-kv2uPg05OPm2h--65" value="Student_id" style="shape=partialRectangle;overflow=hidden;connectable=0;fillColor=none;top=0;left=0;bottom=0;right=0;align=center;spacingLeft=6;fontStyle=0;" parent="tp9Cc-kv2uPg05OPm2h--63" vertex="1">
          <mxGeometry x="30" width="220" height="30" as="geometry">
            <mxRectangle width="220" height="30" as="alternateBounds" />
          </mxGeometry>
        </mxCell>
        <mxCell id="tp9Cc-kv2uPg05OPm2h--66" value="Last Name" style="shape=partialRectangle;overflow=hidden;connectable=0;fillColor=none;top=1;left=0;bottom=1;right=0;align=center;spacingLeft=6;" parent="1" vertex="1">
          <mxGeometry x="1930" y="290" width="250" height="30" as="geometry">
            <mxRectangle width="220" height="30" as="alternateBounds" />
          </mxGeometry>
        </mxCell>
        <mxCell id="tp9Cc-kv2uPg05OPm2h--67" value="First Name" style="shape=partialRectangle;overflow=hidden;connectable=0;fillColor=none;top=1;left=0;bottom=1;right=0;align=center;spacingLeft=6;" parent="1" vertex="1">
          <mxGeometry x="1930" y="260" width="250" height="30" as="geometry">
            <mxRectangle width="220" height="30" as="alternateBounds" />
          </mxGeometry>
        </mxCell>
        <mxCell id="tp9Cc-kv2uPg05OPm2h--70" value="Date of Birth" style="shape=partialRectangle;overflow=hidden;connectable=0;fillColor=none;top=1;left=0;bottom=1;right=0;align=center;spacingLeft=6;" parent="1" vertex="1">
          <mxGeometry x="1930" y="320" width="250" height="30" as="geometry">
            <mxRectangle width="220" height="30" as="alternateBounds" />
          </mxGeometry>
        </mxCell>
        <mxCell id="tp9Cc-kv2uPg05OPm2h--72" value="Phone Number" style="shape=partialRectangle;overflow=hidden;connectable=0;fillColor=none;top=1;left=0;bottom=1;right=0;align=center;spacingLeft=6;" parent="1" vertex="1">
          <mxGeometry x="1930" y="350" width="250" height="30" as="geometry">
            <mxRectangle width="220" height="30" as="alternateBounds" />
          </mxGeometry>
        </mxCell>
        <mxCell id="_XQJYni-1eXX2gmQjkZn-2" value="" style="endArrow=ERzeroToMany;startArrow=ERone;endFill=1;startFill=0;entryX=0;entryY=0.5;entryDx=0;entryDy=0;exitX=1;exitY=0.5;exitDx=0;exitDy=0;edgeStyle=entityRelationEdgeStyle;" parent="1" source="tp9Cc-kv2uPg05OPm2h--50" target="EFeB1YzdgGVFfk6U91Xu-10" edge="1">
          <mxGeometry width="100" height="100" relative="1" as="geometry">
            <mxPoint x="1430" y="370" as="sourcePoint" />
            <mxPoint x="1490" y="155" as="targetPoint" />
          </mxGeometry>
        </mxCell>
        <mxCell id="EFeB1YzdgGVFfk6U91Xu-9" value="StudentBooksLesson" style="shape=table;startSize=30;container=1;collapsible=1;childLayout=tableLayout;fixedRows=1;rowLines=0;fontStyle=1;align=center;resizeLast=1;" parent="1" vertex="1">
          <mxGeometry x="1570" y="170" width="250" height="90" as="geometry" />
        </mxCell>
        <mxCell id="EFeB1YzdgGVFfk6U91Xu-10" value="" style="shape=partialRectangle;collapsible=0;dropTarget=0;pointerEvents=0;fillColor=none;points=[[0,0.5],[1,0.5]];portConstraint=eastwest;top=0;left=0;right=0;bottom=1;" parent="EFeB1YzdgGVFfk6U91Xu-9" vertex="1">
          <mxGeometry y="30" width="250" height="30" as="geometry" />
        </mxCell>
        <mxCell id="EFeB1YzdgGVFfk6U91Xu-11" value="PK FK 1" style="shape=partialRectangle;overflow=hidden;connectable=0;fillColor=none;top=0;left=0;bottom=0;right=0;fontStyle=1;" parent="EFeB1YzdgGVFfk6U91Xu-10" vertex="1">
          <mxGeometry width="50" height="30" as="geometry">
            <mxRectangle width="50" height="30" as="alternateBounds" />
          </mxGeometry>
        </mxCell>
        <mxCell id="EFeB1YzdgGVFfk6U91Xu-12" value="Lesson_id" style="shape=partialRectangle;overflow=hidden;connectable=0;fillColor=none;top=0;left=0;bottom=0;right=0;align=center;spacingLeft=6;fontStyle=0;" parent="EFeB1YzdgGVFfk6U91Xu-10" vertex="1">
          <mxGeometry x="50" width="200" height="30" as="geometry">
            <mxRectangle width="200" height="30" as="alternateBounds" />
          </mxGeometry>
        </mxCell>
        <mxCell id="EFeB1YzdgGVFfk6U91Xu-13" value="PK FK 2" style="shape=partialRectangle;overflow=hidden;connectable=0;fillColor=none;top=1;left=1;bottom=1;right=0;fontStyle=1;" parent="1" vertex="1">
          <mxGeometry x="1570" y="230" width="50" height="30" as="geometry">
            <mxRectangle width="30" height="30" as="alternateBounds" />
          </mxGeometry>
        </mxCell>
        <mxCell id="EFeB1YzdgGVFfk6U91Xu-14" value="Student_id" style="shape=partialRectangle;overflow=hidden;connectable=0;fillColor=none;top=1;left=1;bottom=1;right=0;align=center;spacingLeft=6;fontStyle=0;" parent="1" vertex="1">
          <mxGeometry x="1620" y="230" width="200" height="30" as="geometry">
            <mxRectangle width="220" height="30" as="alternateBounds" />
          </mxGeometry>
        </mxCell>
        <mxCell id="EFeB1YzdgGVFfk6U91Xu-15" value="" style="edgeStyle=entityRelationEdgeStyle;endArrow=ERzeroToMany;startArrow=ERone;endFill=1;startFill=0;entryX=0;entryY=0.5;entryDx=0;entryDy=0;" parent="1" target="tp9Cc-kv2uPg05OPm2h--63" edge="1">
          <mxGeometry width="100" height="100" relative="1" as="geometry">
            <mxPoint x="1820" y="245" as="sourcePoint" />
            <mxPoint x="1970" y="390" as="targetPoint" />
          </mxGeometry>
        </mxCell>
        <mxCell id="EFeB1YzdgGVFfk6U91Xu-16" value="Email" style="shape=table;startSize=30;container=1;collapsible=1;childLayout=tableLayout;fixedRows=1;rowLines=0;fontStyle=1;align=center;resizeLast=1;" parent="1" vertex="1">
          <mxGeometry x="-130" y="-180" width="250" height="120" as="geometry" />
        </mxCell>
        <mxCell id="EFeB1YzdgGVFfk6U91Xu-17" value="" style="shape=partialRectangle;collapsible=0;dropTarget=0;pointerEvents=0;fillColor=none;points=[[0,0.5],[1,0.5]];portConstraint=eastwest;top=0;left=0;right=0;bottom=1;" parent="EFeB1YzdgGVFfk6U91Xu-16" vertex="1">
          <mxGeometry y="30" width="250" height="30" as="geometry" />
        </mxCell>
        <mxCell id="EFeB1YzdgGVFfk6U91Xu-18" value="PK FK 1" style="shape=partialRectangle;overflow=hidden;connectable=0;fillColor=none;top=0;left=0;bottom=0;right=0;fontStyle=1;" parent="EFeB1YzdgGVFfk6U91Xu-17" vertex="1">
          <mxGeometry width="50" height="30" as="geometry">
            <mxRectangle width="50" height="30" as="alternateBounds" />
          </mxGeometry>
        </mxCell>
        <mxCell id="EFeB1YzdgGVFfk6U91Xu-19" value="Employee_id" style="shape=partialRectangle;overflow=hidden;connectable=0;fillColor=none;top=0;left=0;bottom=0;right=0;align=center;spacingLeft=6;fontStyle=0;" parent="EFeB1YzdgGVFfk6U91Xu-17" vertex="1">
          <mxGeometry x="50" width="200" height="30" as="geometry">
            <mxRectangle width="200" height="30" as="alternateBounds" />
          </mxGeometry>
        </mxCell>
        <mxCell id="EFeB1YzdgGVFfk6U91Xu-20" value="PK " style="shape=partialRectangle;overflow=hidden;connectable=0;fillColor=none;top=1;left=1;bottom=1;right=0;fontStyle=1;" parent="1" vertex="1">
          <mxGeometry x="-130" y="-90" width="50" height="30" as="geometry">
            <mxRectangle width="30" height="30" as="alternateBounds" />
          </mxGeometry>
        </mxCell>
        <mxCell id="EFeB1YzdgGVFfk6U91Xu-21" value="Email" style="shape=partialRectangle;overflow=hidden;connectable=0;fillColor=none;top=1;left=1;bottom=1;right=0;align=center;spacingLeft=6;fontStyle=0;" parent="1" vertex="1">
          <mxGeometry x="-80" y="-90" width="200" height="30" as="geometry">
            <mxRectangle width="220" height="30" as="alternateBounds" />
          </mxGeometry>
        </mxCell>
        <mxCell id="EFeB1YzdgGVFfk6U91Xu-24" value="PK FK 2" style="shape=partialRectangle;overflow=hidden;connectable=0;fillColor=none;top=1;left=1;bottom=1;right=0;fontStyle=1;" parent="1" vertex="1">
          <mxGeometry x="-130" y="-120" width="50" height="30" as="geometry">
            <mxRectangle width="30" height="30" as="alternateBounds" />
          </mxGeometry>
        </mxCell>
        <mxCell id="EFeB1YzdgGVFfk6U91Xu-25" value="Student_id" style="shape=partialRectangle;overflow=hidden;connectable=0;fillColor=none;top=1;left=1;bottom=1;right=0;align=center;spacingLeft=6;fontStyle=0;" parent="1" vertex="1">
          <mxGeometry x="-80" y="-120" width="200" height="30" as="geometry">
            <mxRectangle width="220" height="30" as="alternateBounds" />
          </mxGeometry>
        </mxCell>
        <mxCell id="Yoxj_JTkUOnSCHoUk-nb-1" value="Employee Capacity" style="shape=partialRectangle;overflow=hidden;connectable=0;fillColor=none;top=1;left=0;bottom=1;right=0;align=center;spacingLeft=6;" parent="1" vertex="1">
          <mxGeometry x="-460" y="550" width="250" height="30" as="geometry">
            <mxRectangle width="220" height="30" as="alternateBounds" />
          </mxGeometry>
        </mxCell>
        <mxCell id="Yoxj_JTkUOnSCHoUk-nb-2" value="HQ" style="shape=partialRectangle;overflow=hidden;connectable=0;fillColor=none;top=1;left=0;bottom=1;right=0;align=center;spacingLeft=6;" parent="1" vertex="1">
          <mxGeometry x="-460" y="580" width="250" height="30" as="geometry">
            <mxRectangle width="220" height="30" as="alternateBounds" />
          </mxGeometry>
        </mxCell>
        <mxCell id="Yoxj_JTkUOnSCHoUk-nb-9" value="Other" style="shape=table;startSize=30;container=1;collapsible=1;childLayout=tableLayout;fixedRows=1;rowLines=0;fontStyle=1;align=center;resizeLast=1;" parent="1" vertex="1">
          <mxGeometry x="270" y="500" width="250" height="90" as="geometry" />
        </mxCell>
        <mxCell id="Yoxj_JTkUOnSCHoUk-nb-10" value="" style="shape=partialRectangle;collapsible=0;dropTarget=0;pointerEvents=0;fillColor=none;points=[[0,0.5],[1,0.5]];portConstraint=eastwest;top=0;left=0;right=0;bottom=1;" parent="Yoxj_JTkUOnSCHoUk-nb-9" vertex="1">
          <mxGeometry y="30" width="250" height="30" as="geometry" />
        </mxCell>
        <mxCell id="Yoxj_JTkUOnSCHoUk-nb-11" value="PK FK 1" style="shape=partialRectangle;overflow=hidden;connectable=0;fillColor=none;top=0;left=0;bottom=0;right=0;fontStyle=1;" parent="Yoxj_JTkUOnSCHoUk-nb-10" vertex="1">
          <mxGeometry width="50" height="30" as="geometry">
            <mxRectangle width="50" height="30" as="alternateBounds" />
          </mxGeometry>
        </mxCell>
        <mxCell id="Yoxj_JTkUOnSCHoUk-nb-12" value="Employee_id" style="shape=partialRectangle;overflow=hidden;connectable=0;fillColor=none;top=0;left=0;bottom=0;right=0;align=center;spacingLeft=6;fontStyle=0;" parent="Yoxj_JTkUOnSCHoUk-nb-10" vertex="1">
          <mxGeometry x="50" width="200" height="30" as="geometry">
            <mxRectangle width="200" height="30" as="alternateBounds" />
          </mxGeometry>
        </mxCell>
        <mxCell id="Yoxj_JTkUOnSCHoUk-nb-14" value="Job Title" style="shape=partialRectangle;overflow=hidden;connectable=0;fillColor=none;top=1;left=1;bottom=1;right=0;align=center;spacingLeft=6;fontStyle=0;" parent="1" vertex="1">
          <mxGeometry x="320" y="560" width="200" height="30" as="geometry">
            <mxRectangle width="220" height="30" as="alternateBounds" />
          </mxGeometry>
        </mxCell>
        <mxCell id="Yoxj_JTkUOnSCHoUk-nb-21" value="Instructor" style="shape=table;startSize=30;container=1;collapsible=1;childLayout=tableLayout;fixedRows=1;rowLines=0;fontStyle=1;align=center;resizeLast=1;" parent="1" vertex="1">
          <mxGeometry x="270" y="330" width="250" height="90" as="geometry" />
        </mxCell>
        <mxCell id="Yoxj_JTkUOnSCHoUk-nb-22" value="" style="shape=partialRectangle;collapsible=0;dropTarget=0;pointerEvents=0;fillColor=none;points=[[0,0.5],[1,0.5]];portConstraint=eastwest;top=0;left=0;right=0;bottom=1;" parent="Yoxj_JTkUOnSCHoUk-nb-21" vertex="1">
          <mxGeometry y="30" width="250" height="30" as="geometry" />
        </mxCell>
        <mxCell id="Yoxj_JTkUOnSCHoUk-nb-23" value="PK FK 1" style="shape=partialRectangle;overflow=hidden;connectable=0;fillColor=none;top=0;left=0;bottom=0;right=0;fontStyle=1;" parent="Yoxj_JTkUOnSCHoUk-nb-22" vertex="1">
          <mxGeometry width="50" height="30" as="geometry">
            <mxRectangle width="50" height="30" as="alternateBounds" />
          </mxGeometry>
        </mxCell>
        <mxCell id="Yoxj_JTkUOnSCHoUk-nb-24" value="Employee_id" style="shape=partialRectangle;overflow=hidden;connectable=0;fillColor=none;top=0;left=0;bottom=0;right=0;align=center;spacingLeft=6;fontStyle=0;" parent="Yoxj_JTkUOnSCHoUk-nb-22" vertex="1">
          <mxGeometry x="50" width="200" height="30" as="geometry">
            <mxRectangle width="200" height="30" as="alternateBounds" />
          </mxGeometry>
        </mxCell>
        <mxCell id="Yoxj_JTkUOnSCHoUk-nb-25" value="PK FK 2" style="shape=partialRectangle;overflow=hidden;connectable=0;fillColor=none;top=1;left=1;bottom=1;right=0;fontStyle=1;" parent="1" vertex="1">
          <mxGeometry x="270" y="390" width="50" height="30" as="geometry">
            <mxRectangle width="30" height="30" as="alternateBounds" />
          </mxGeometry>
        </mxCell>
        <mxCell id="Yoxj_JTkUOnSCHoUk-nb-26" value="Branch_id" style="shape=partialRectangle;overflow=hidden;connectable=0;fillColor=none;top=1;left=1;bottom=1;right=0;align=center;spacingLeft=6;fontStyle=0;" parent="1" vertex="1">
          <mxGeometry x="320" y="390" width="200" height="30" as="geometry">
            <mxRectangle width="220" height="30" as="alternateBounds" />
          </mxGeometry>
        </mxCell>
        <mxCell id="Yoxj_JTkUOnSCHoUk-nb-37" style="edgeStyle=orthogonalEdgeStyle;rounded=0;orthogonalLoop=1;jettySize=auto;html=1;exitX=1;exitY=0.75;exitDx=0;exitDy=0;entryX=0;entryY=0.5;entryDx=0;entryDy=0;endArrow=ERone;endFill=0;startArrow=ERzeroToMany;startFill=0;" parent="1" source="Yoxj_JTkUOnSCHoUk-nb-27" target="C-vyLk0tnHw3VtMMgP7b-24" edge="1">
          <mxGeometry relative="1" as="geometry">
            <Array as="points">
              <mxPoint x="540" y="738" />
              <mxPoint x="540" y="880" />
              <mxPoint x="-600" y="880" />
              <mxPoint x="-600" y="475" />
            </Array>
          </mxGeometry>
        </mxCell>
        <mxCell id="Yoxj_JTkUOnSCHoUk-nb-27" value="Administrative Position" style="shape=table;startSize=30;container=1;collapsible=1;childLayout=tableLayout;fixedRows=1;rowLines=0;fontStyle=1;align=center;resizeLast=1;" parent="1" vertex="1">
          <mxGeometry x="270" y="670" width="250" height="90" as="geometry" />
        </mxCell>
        <mxCell id="Yoxj_JTkUOnSCHoUk-nb-28" value="" style="shape=partialRectangle;collapsible=0;dropTarget=0;pointerEvents=0;fillColor=none;points=[[0,0.5],[1,0.5]];portConstraint=eastwest;top=0;left=0;right=0;bottom=1;" parent="Yoxj_JTkUOnSCHoUk-nb-27" vertex="1">
          <mxGeometry y="30" width="250" height="30" as="geometry" />
        </mxCell>
        <mxCell id="Yoxj_JTkUOnSCHoUk-nb-29" value="PK FK 1" style="shape=partialRectangle;overflow=hidden;connectable=0;fillColor=none;top=0;left=0;bottom=0;right=0;fontStyle=1;" parent="Yoxj_JTkUOnSCHoUk-nb-28" vertex="1">
          <mxGeometry width="50" height="30" as="geometry">
            <mxRectangle width="50" height="30" as="alternateBounds" />
          </mxGeometry>
        </mxCell>
        <mxCell id="Yoxj_JTkUOnSCHoUk-nb-30" value="Employee_id" style="shape=partialRectangle;overflow=hidden;connectable=0;fillColor=none;top=0;left=0;bottom=0;right=0;align=center;spacingLeft=6;fontStyle=0;" parent="Yoxj_JTkUOnSCHoUk-nb-28" vertex="1">
          <mxGeometry x="50" width="200" height="30" as="geometry">
            <mxRectangle width="200" height="30" as="alternateBounds" />
          </mxGeometry>
        </mxCell>
        <mxCell id="Yoxj_JTkUOnSCHoUk-nb-31" value="PK FK 2" style="shape=partialRectangle;overflow=hidden;connectable=0;fillColor=none;top=1;left=1;bottom=1;right=0;fontStyle=1;" parent="1" vertex="1">
          <mxGeometry x="270" y="730" width="50" height="30" as="geometry">
            <mxRectangle width="30" height="30" as="alternateBounds" />
          </mxGeometry>
        </mxCell>
        <mxCell id="Yoxj_JTkUOnSCHoUk-nb-32" value="Branch_id" style="shape=partialRectangle;overflow=hidden;connectable=0;fillColor=none;top=1;left=1;bottom=1;right=1;align=center;spacingLeft=6;fontStyle=0;" parent="1" vertex="1">
          <mxGeometry x="320" y="730" width="200" height="30" as="geometry">
            <mxRectangle width="220" height="30" as="alternateBounds" />
          </mxGeometry>
        </mxCell>
        <mxCell id="Yoxj_JTkUOnSCHoUk-nb-33" style="edgeStyle=entityRelationEdgeStyle;rounded=0;orthogonalLoop=1;jettySize=auto;html=1;exitX=1;exitY=0.5;exitDx=0;exitDy=0;entryX=0;entryY=0.5;entryDx=0;entryDy=0;endArrow=ERzeroToMany;endFill=0;startArrow=ERone;startFill=0;" parent="1" source="tp9Cc-kv2uPg05OPm2h--19" target="Yoxj_JTkUOnSCHoUk-nb-22" edge="1">
          <mxGeometry relative="1" as="geometry" />
        </mxCell>
        <mxCell id="Yoxj_JTkUOnSCHoUk-nb-35" style="edgeStyle=entityRelationEdgeStyle;rounded=0;orthogonalLoop=1;jettySize=auto;html=1;exitX=1;exitY=0.25;exitDx=0;exitDy=0;entryX=0;entryY=0.5;entryDx=0;entryDy=0;endArrow=ERzeroToMany;endFill=0;" parent="1" target="Yoxj_JTkUOnSCHoUk-nb-10" edge="1">
          <mxGeometry relative="1" as="geometry">
            <mxPoint x="119.5" y="474" as="sourcePoint" />
            <mxPoint x="269.5" y="536" as="targetPoint" />
          </mxGeometry>
        </mxCell>
        <mxCell id="Yoxj_JTkUOnSCHoUk-nb-36" style="edgeStyle=orthogonalEdgeStyle;rounded=0;orthogonalLoop=1;jettySize=auto;html=1;exitX=0;exitY=0.5;exitDx=0;exitDy=0;entryX=1;entryY=0.5;entryDx=0;entryDy=0;endArrow=ERzeroToMany;endFill=0;startArrow=ERone;startFill=0;" parent="1" source="C-vyLk0tnHw3VtMMgP7b-24" target="Yoxj_JTkUOnSCHoUk-nb-22" edge="1">
          <mxGeometry relative="1" as="geometry">
            <Array as="points">
              <mxPoint x="-600" y="475" />
              <mxPoint x="-600" y="290" />
              <mxPoint x="540" y="290" />
              <mxPoint x="540" y="375" />
            </Array>
          </mxGeometry>
        </mxCell>
        <mxCell id="Yoxj_JTkUOnSCHoUk-nb-48" style="edgeStyle=orthogonalEdgeStyle;rounded=0;orthogonalLoop=1;jettySize=auto;html=1;exitX=1;exitY=0.5;exitDx=0;exitDy=0;entryX=0;entryY=0.5;entryDx=0;entryDy=0;endArrow=ERzeroToMany;endFill=0;startArrow=ERone;startFill=0;" parent="1" source="Yoxj_JTkUOnSCHoUk-nb-22" target="tp9Cc-kv2uPg05OPm2h--50" edge="1">
          <mxGeometry relative="1" as="geometry">
            <mxPoint x="1070" y="247.5" as="sourcePoint" />
          </mxGeometry>
        </mxCell>
        <mxCell id="Yoxj_JTkUOnSCHoUk-nb-49" value="Theoretical Class" style="shape=table;startSize=30;container=1;collapsible=1;childLayout=tableLayout;fixedRows=1;rowLines=0;fontStyle=1;align=center;resizeLast=1;" parent="1" vertex="1">
          <mxGeometry x="1470" y="-110" width="250" height="160" as="geometry" />
        </mxCell>
        <mxCell id="Yoxj_JTkUOnSCHoUk-nb-50" value="" style="shape=partialRectangle;collapsible=0;dropTarget=0;pointerEvents=0;fillColor=none;points=[[0,0.5],[1,0.5]];portConstraint=eastwest;top=0;left=0;right=0;bottom=1;" parent="Yoxj_JTkUOnSCHoUk-nb-49" vertex="1">
          <mxGeometry y="30" width="250" height="30" as="geometry" />
        </mxCell>
        <mxCell id="Yoxj_JTkUOnSCHoUk-nb-51" value="PK" style="shape=partialRectangle;overflow=hidden;connectable=0;fillColor=none;top=0;left=0;bottom=0;right=0;fontStyle=1;" parent="Yoxj_JTkUOnSCHoUk-nb-50" vertex="1">
          <mxGeometry width="30" height="30" as="geometry">
            <mxRectangle width="30" height="30" as="alternateBounds" />
          </mxGeometry>
        </mxCell>
        <mxCell id="Yoxj_JTkUOnSCHoUk-nb-52" value="Lesson_id" style="shape=partialRectangle;overflow=hidden;connectable=0;fillColor=none;top=0;left=0;bottom=0;right=0;align=center;spacingLeft=6;fontStyle=0;" parent="Yoxj_JTkUOnSCHoUk-nb-50" vertex="1">
          <mxGeometry x="30" width="220" height="30" as="geometry">
            <mxRectangle width="220" height="30" as="alternateBounds" />
          </mxGeometry>
        </mxCell>
        <mxCell id="Yoxj_JTkUOnSCHoUk-nb-53" value="Max Capacity" style="shape=partialRectangle;overflow=hidden;connectable=0;fillColor=none;top=1;left=0;bottom=1;right=0;align=center;spacingLeft=6;" parent="1" vertex="1">
          <mxGeometry x="1470" y="-20" width="250" height="35" as="geometry">
            <mxRectangle width="220" height="30" as="alternateBounds" />
          </mxGeometry>
        </mxCell>
        <mxCell id="Yoxj_JTkUOnSCHoUk-nb-54" value="Classroom" style="shape=partialRectangle;overflow=hidden;connectable=0;fillColor=none;top=1;left=0;bottom=1;right=0;align=center;spacingLeft=6;" parent="1" vertex="1">
          <mxGeometry x="1470" y="-50" width="250" height="30" as="geometry">
            <mxRectangle width="220" height="30" as="alternateBounds" />
          </mxGeometry>
        </mxCell>
        <mxCell id="Yoxj_JTkUOnSCHoUk-nb-55" value="Topic" style="shape=partialRectangle;overflow=hidden;connectable=0;fillColor=none;top=1;left=0;bottom=1;right=0;align=center;spacingLeft=6;" parent="1" vertex="1">
          <mxGeometry x="1470" y="15" width="250" height="35" as="geometry">
            <mxRectangle width="220" height="30" as="alternateBounds" />
          </mxGeometry>
        </mxCell>
        <mxCell id="Yoxj_JTkUOnSCHoUk-nb-56" style="edgeStyle=orthogonalEdgeStyle;rounded=0;orthogonalLoop=1;jettySize=auto;html=1;exitX=0;exitY=0.5;exitDx=0;exitDy=0;entryX=1;entryY=0.5;entryDx=0;entryDy=0;endArrow=ERone;endFill=0;startArrow=ERzeroToMany;startFill=0;" parent="1" source="Yoxj_JTkUOnSCHoUk-nb-50" target="tp9Cc-kv2uPg05OPm2h--50" edge="1">
          <mxGeometry relative="1" as="geometry" />
        </mxCell>
        <mxCell id="Yoxj_JTkUOnSCHoUk-nb-64" value="Practical Class" style="shape=table;startSize=30;container=1;collapsible=1;childLayout=tableLayout;fixedRows=1;rowLines=0;fontStyle=1;align=center;resizeLast=1;" parent="1" vertex="1">
          <mxGeometry x="1500" y="470" width="250" height="150" as="geometry" />
        </mxCell>
        <mxCell id="Yoxj_JTkUOnSCHoUk-nb-65" value="" style="shape=partialRectangle;collapsible=0;dropTarget=0;pointerEvents=0;fillColor=none;points=[[0,0.5],[1,0.5]];portConstraint=eastwest;top=0;left=0;right=0;bottom=1;" parent="Yoxj_JTkUOnSCHoUk-nb-64" vertex="1">
          <mxGeometry y="30" width="250" height="30" as="geometry" />
        </mxCell>
        <mxCell id="Yoxj_JTkUOnSCHoUk-nb-66" value="PK FK 1" style="shape=partialRectangle;overflow=hidden;connectable=0;fillColor=none;top=0;left=0;bottom=0;right=0;fontStyle=1;" parent="Yoxj_JTkUOnSCHoUk-nb-65" vertex="1">
          <mxGeometry width="50" height="30" as="geometry">
            <mxRectangle width="50" height="30" as="alternateBounds" />
          </mxGeometry>
        </mxCell>
        <mxCell id="Yoxj_JTkUOnSCHoUk-nb-67" value="Lesson_id" style="shape=partialRectangle;overflow=hidden;connectable=0;fillColor=none;top=0;left=0;bottom=0;right=0;align=center;spacingLeft=6;fontStyle=0;" parent="Yoxj_JTkUOnSCHoUk-nb-65" vertex="1">
          <mxGeometry x="50" width="200" height="30" as="geometry">
            <mxRectangle width="200" height="30" as="alternateBounds" />
          </mxGeometry>
        </mxCell>
        <mxCell id="Yoxj_JTkUOnSCHoUk-nb-68" value="License_id" style="shape=partialRectangle;overflow=hidden;connectable=0;fillColor=none;top=1;left=1;bottom=1;right=0;align=center;spacingLeft=6;fontStyle=0;" parent="1" vertex="1">
          <mxGeometry x="1550" y="530" width="200" height="30" as="geometry">
            <mxRectangle width="220" height="30" as="alternateBounds" />
          </mxGeometry>
        </mxCell>
        <mxCell id="Yoxj_JTkUOnSCHoUk-nb-69" value="PK FK 2" style="shape=partialRectangle;overflow=hidden;connectable=0;fillColor=none;top=0;left=0;bottom=1;right=0;fontStyle=1;" parent="1" vertex="1">
          <mxGeometry x="1500" y="530" width="50" height="30" as="geometry">
            <mxRectangle width="50" height="30" as="alternateBounds" />
          </mxGeometry>
        </mxCell>
        <mxCell id="Yoxj_JTkUOnSCHoUk-nb-70" value="Vehicle" style="shape=partialRectangle;overflow=hidden;connectable=0;fillColor=none;top=0;left=0;bottom=1;right=0;align=center;spacingLeft=6;fontStyle=0;" parent="1" vertex="1">
          <mxGeometry x="1500" y="560" width="250" height="30" as="geometry">
            <mxRectangle width="200" height="30" as="alternateBounds" />
          </mxGeometry>
        </mxCell>
        <mxCell id="Yoxj_JTkUOnSCHoUk-nb-71" value="Evaluation" style="shape=partialRectangle;overflow=hidden;connectable=0;fillColor=none;top=0;left=0;bottom=0;right=0;align=center;spacingLeft=6;fontStyle=0;" parent="1" vertex="1">
          <mxGeometry x="1500" y="590" width="250" height="30" as="geometry">
            <mxRectangle width="200" height="30" as="alternateBounds" />
          </mxGeometry>
        </mxCell>
        <mxCell id="Yoxj_JTkUOnSCHoUk-nb-72" style="edgeStyle=orthogonalEdgeStyle;rounded=0;orthogonalLoop=1;jettySize=auto;html=1;exitX=1;exitY=0.5;exitDx=0;exitDy=0;endArrow=ERzeroToMany;endFill=0;startArrow=ERone;startFill=0;" parent="1" source="tp9Cc-kv2uPg05OPm2h--32" edge="1">
          <mxGeometry relative="1" as="geometry">
            <mxPoint x="1500" y="540" as="targetPoint" />
          </mxGeometry>
        </mxCell>
        <mxCell id="TjQYWzDGsvJGxS4TtFBe-1" style="edgeStyle=orthogonalEdgeStyle;rounded=0;orthogonalLoop=1;jettySize=auto;html=1;exitX=1;exitY=0.5;exitDx=0;exitDy=0;endArrow=none;endFill=0;" parent="1" source="tp9Cc-kv2uPg05OPm2h--63" edge="1">
          <mxGeometry relative="1" as="geometry">
            <mxPoint x="2170" y="270" as="sourcePoint" />
            <mxPoint x="-130" y="-110" as="targetPoint" />
            <Array as="points">
              <mxPoint x="2230" y="245" />
              <mxPoint x="2230" y="-350" />
              <mxPoint x="-139" y="-350" />
              <mxPoint x="-139" y="-110" />
            </Array>
          </mxGeometry>
        </mxCell>
        <mxCell id="TjQYWzDGsvJGxS4TtFBe-2" style="edgeStyle=orthogonalEdgeStyle;rounded=0;orthogonalLoop=1;jettySize=auto;html=1;exitX=0;exitY=0.5;exitDx=0;exitDy=0;entryX=1;entryY=0.5;entryDx=0;entryDy=0;endArrow=none;endFill=0;" parent="1" source="EFeB1YzdgGVFfk6U91Xu-17" target="tp9Cc-kv2uPg05OPm2h--19" edge="1">
          <mxGeometry relative="1" as="geometry">
            <Array as="points">
              <mxPoint x="-740" y="-135" />
              <mxPoint x="-740" y="990" />
              <mxPoint x="610" y="990" />
              <mxPoint x="610" y="475" />
            </Array>
          </mxGeometry>
        </mxCell>
        <mxCell id="nDkcNws_D2yMdhgYIPI6-1" value="&amp;nbsp;" style="text;html=1;strokeColor=none;fillColor=none;align=center;verticalAlign=middle;whiteSpace=wrap;rounded=0;" vertex="1" parent="1">
          <mxGeometry x="-900" y="-10" width="60" height="30" as="geometry" />
        </mxCell>
        <mxCell id="nDkcNws_D2yMdhgYIPI6-2" value="&amp;nbsp;" style="text;html=1;strokeColor=none;fillColor=none;align=center;verticalAlign=middle;whiteSpace=wrap;rounded=0;" vertex="1" parent="1">
          <mxGeometry x="620" y="1280" width="60" height="30" as="geometry" />
        </mxCell>
        <mxCell id="nDkcNws_D2yMdhgYIPI6-4" value="&amp;nbsp;" style="text;html=1;strokeColor=none;fillColor=none;align=center;verticalAlign=middle;whiteSpace=wrap;rounded=0;" vertex="1" parent="1">
          <mxGeometry x="2420" y="225" width="60" height="30" as="geometry" />
        </mxCell>
        <mxCell id="nDkcNws_D2yMdhgYIPI6-5" value="&amp;nbsp;" style="text;html=1;strokeColor=none;fillColor=none;align=center;verticalAlign=middle;whiteSpace=wrap;rounded=0;" vertex="1" parent="1">
          <mxGeometry x="810" y="-565" width="60" height="30" as="geometry" />
        </mxCell>
      </root>
    </mxGraphModel>
  </diagram>
</mxfile>
